<mxfile host="app.diagrams.net" modified="2021-12-28T15:33:02.288Z" agent="5.0 (Windows NT 10.0; Win64; x64) AppleWebKit/537.36 (KHTML, like Gecko) Chrome/96.0.4664.110 Safari/537.36" etag="iA7JX5uoSuKZXr9neGOS" version="16.1.0" type="github">
  <diagram id="gnd1z-vkEwB7StJ_hXZW" name="第 1 页">
    <mxGraphModel dx="1209" dy="711" grid="1" gridSize="10" guides="1" tooltips="1" connect="1" arrows="1" fold="1" page="1" pageScale="1" pageWidth="827" pageHeight="1169" math="0" shadow="0">
      <root>
        <mxCell id="0" />
        <mxCell id="1" parent="0" />
        <mxCell id="P39CHDQhXrutCx_nGXNt-1" value="CliDriver" style="rounded=0;whiteSpace=wrap;html=1;fillColor=#ffe6cc;strokeColor=#d79b00;fontSize=22;verticalAlign=top;" vertex="1" parent="1">
          <mxGeometry x="40" y="50" width="540" height="730" as="geometry" />
        </mxCell>
        <mxCell id="P39CHDQhXrutCx_nGXNt-2" value="main" style="rounded=1;whiteSpace=wrap;html=1;fontSize=18;strokeWidth=2;" vertex="1" parent="1">
          <mxGeometry x="240" y="170" width="180" height="60" as="geometry" />
        </mxCell>
        <mxCell id="P39CHDQhXrutCx_nGXNt-3" value="run()" style="rounded=1;whiteSpace=wrap;html=1;fontSize=18;strokeWidth=2;" vertex="1" parent="1">
          <mxGeometry x="244" y="310" width="176" height="60" as="geometry" />
        </mxCell>
        <mxCell id="P39CHDQhXrutCx_nGXNt-4" value="executorDriver()" style="rounded=1;whiteSpace=wrap;html=1;fontSize=18;strokeWidth=2;" vertex="1" parent="1">
          <mxGeometry x="238" y="460" width="176" height="60" as="geometry" />
        </mxCell>
        <mxCell id="P39CHDQhXrutCx_nGXNt-5" value="executorDriver()" style="rounded=1;whiteSpace=wrap;html=1;fontSize=18;strokeWidth=2;" vertex="1" parent="1">
          <mxGeometry x="238" y="585" width="176" height="60" as="geometry" />
        </mxCell>
      </root>
    </mxGraphModel>
  </diagram>
</mxfile>
